<svg xmlns="http://www.w3.org/2000/svg" viewBox="0 0 300 120" fill="none">
  <!-- Orange circle with stethoscope -->
  <circle cx="60" cy="60" r="52" stroke="#C96A2B" stroke-width="6" fill="none"/>
  <path d="M48 38 C48 38 48 32 54 32 C60 32 60 38 60 38 L60 62 C60 74 72 74 72 62 L72 58" stroke="#C96A2B" stroke-width="5" stroke-linecap="round" fill="none"/>
  <circle cx="72" cy="54" r="4" fill="#C96A2B"/>
  <circle cx="48" cy="76" r="6" stroke="#C96A2B" stroke-width="4" fill="none"/>
  <path d="M48 70 L48 62" stroke="#C96A2B" stroke-width="5" stroke-linecap="round"/>

  <!-- Red circle with Rx -->
  <circle cx="150" cy="60" r="52" stroke="#B23A3A" stroke-width="6" fill="none"/>
  <rect x="128" y="34" width="38" height="50" rx="3" stroke="#B23A3A" stroke-width="4" fill="none"/>
  <text x="135" y="68" font-family="serif" font-size="28" font-weight="bold" fill="#B23A3A">R</text>
  <text x="153" y="74" font-family="serif" font-size="18" fill="#B23A3A">x</text>

  <!-- Green circle with walking person -->
  <circle cx="240" cy="60" r="52" stroke="#2F7D5B" stroke-width="6" fill="none"/>
  <circle cx="244" cy="34" r="6" fill="#2F7D5B"/>
  <path d="M238 46 L242 62 L252 78" stroke="#2F7D5B" stroke-width="5" stroke-linecap="round" stroke-linejoin="round" fill="none"/>
  <path d="M242 62 L232 78" stroke="#2F7D5B" stroke-width="5" stroke-linecap="round" fill="none"/>
  <path d="M234 48 L242 56 L254 50" stroke="#2F7D5B" stroke-width="5" stroke-linecap="round" stroke-linejoin="round" fill="none"/>
</svg>